<?xml version="1.0" standalone="no"?><!DOCTYPE svg PUBLIC "-//W3C//DTD SVG 1.1//EN" "http://www.w3.org/Graphics/SVG/1.1/DTD/svg11.dtd"><svg t="1552033312581" class="icon" style="" viewBox="0 0 1024 1024" version="1.1" xmlns="http://www.w3.org/2000/svg" p-id="3127" xmlns:xlink="http://www.w3.org/1999/xlink" width="32" height="32"><defs><style type="text/css"></style></defs><path d="M512 512m-512 0a512 512 0 1 0 1024 0 512 512 0 1 0-1024 0Z" fill="#4EB4F2" p-id="3128"></path><path d="M289.4336 552.797867c-18.773333 46.634667-21.905067 91.093333-6.775467 99.3536 10.461867 5.7344 26.769067-7.3728 42.120534-31.232a131.84 131.84 0 0 0 42.5472 68.5312c-22.468267 8.721067-37.188267 22.980267-37.188267 39.0912 0 26.5472 39.748267 47.982933 88.746667 47.982933 44.228267 0 80.8704-17.390933 87.645866-40.32H517.12c6.903467 22.929067 43.460267 40.32 87.748267 40.32 49.092267 0 88.746667-21.435733 88.746666-47.982933 0-16.110933-14.6944-30.2592-37.205333-39.0912a131.976533 131.976533 0 0 0 42.530133-68.5312c15.36 23.893333 31.573333 36.9664 42.069334 31.232 15.223467-8.260267 12.1856-52.718933-6.826667-99.3536-14.830933-36.522667-34.909867-63.479467-50.218667-69.512534A73.088 73.088 0 0 0 674.133333 438.391467a40.849067 40.849067 0 0 0-3.882666-20.352c-3.874133-95.061333-62.8736-170.666667-158.421334-170.666667s-154.5984 75.588267-158.464 170.666667a42.205867 42.205867 0 0 0-4.0192 17.92 19.114667 19.114667 0 0 0 0.110934 2.5088 73.813333 73.813333 0 0 0-10.120534 37.8368c0 2.3808 0.128 4.7616 0.2816 7.074133-15.240533 5.973333-35.4048 32.904533-50.210133 69.4272z m0 0" fill="#FFFFFF" p-id="3129"></path></svg>