<?xml version="1.0" standalone="no"?><!DOCTYPE svg PUBLIC "-//W3C//DTD SVG 1.1//EN" "http://www.w3.org/Graphics/SVG/1.1/DTD/svg11.dtd"><svg t="1552033431527" class="icon" style="" viewBox="0 0 1024 1024" version="1.1" xmlns="http://www.w3.org/2000/svg" p-id="4644" xmlns:xlink="http://www.w3.org/1999/xlink" width="32" height="32"><defs><style type="text/css"></style></defs><path d="M579.584 511.627636a24.576 24.576 0 0 0-23.365818 24.110546c0 10.891636 11.729455 21.690182 23.365818 21.690182 17.454545 0 30.068364-10.798545 30.068364-21.690182-0.046545-13.312-12.567273-24.110545-30.068364-24.110546z m-76.8-112.64c18.385455 0 30.068364-11.729455 30.068364-29.184 0-18.385455-11.682909-29.277091-30.068364-29.277091-17.454545 0-34.164364 10.845091-34.164364 29.277091 0 17.454545 16.709818 29.184 34.164364 29.184zM512 0C229.236364 0 0 229.236364 0 512s229.236364 512 512 512 512-229.236364 512-512S794.763636 0 512 0zM415.232 641.722182c-30.859636 0-53.387636-5.073455-82.618182-13.358546l-84.247273 42.542546 24.203637-71.726546c-59.205818-41.751273-94.254545-94.301091-94.254546-158.487272 0-113.477818 106.728727-200.145455 236.916364-200.145455 115.153455 0 217.646545 68.421818 237.754182 165.143273a116.922182 116.922182 0 0 0-22.574546-2.466909c-113.431273 0-201.076364 85.038545-201.076363 187.624727 0 17.547636 2.606545 33.326545 6.702545 50.036364-6.656 0.837818-14.149818 0.837818-20.805818 0.837818z m347.880727 81.733818l16.663273 60.090182-63.348364-35.886546c-24.203636 4.980364-47.569455 12.474182-71.773091 12.474182-111.709091 0-200.145455-76.753455-200.145454-171.892363s88.436364-171.845818 200.145454-171.845819c105.937455 0 201.076364 76.706909 201.076364 171.845819 0 53.527273-35.933091 101.003636-82.618182 135.214545z m-425.425454-382.929455c-17.547636 0-35.933091 10.845091-35.933091 29.277091 0 17.454545 18.385455 29.184 35.933091 29.184 16.663273 0 29.975273-11.729455 29.975272-29.184 0-18.385455-13.312-29.277091-29.975272-29.277091z m372.922182 171.101091a24.017455 24.017455 0 0 0-23.365819 24.110546c0 10.891636 10.798545 21.690182 23.365819 21.690182 16.709818 0 29.184-10.798545 29.184-21.690182 0-13.312-12.567273-24.110545-29.184-24.110546z" fill="#07BE14" p-id="4645"></path></svg>