<?xml version="1.0" standalone="no"?><!DOCTYPE svg PUBLIC "-//W3C//DTD SVG 1.1//EN" "http://www.w3.org/Graphics/SVG/1.1/DTD/svg11.dtd"><svg t="1552033241301" class="icon" style="" viewBox="0 0 1024 1024" version="1.1" xmlns="http://www.w3.org/2000/svg" p-id="1719" xmlns:xlink="http://www.w3.org/1999/xlink" width="32" height="32"><defs><style type="text/css"></style></defs><path d="M231.131429 576.365714c-11.702857 10.24-24.868571 23.405714-29.257143 42.422857-5.851429 24.868571-1.462857 55.588571 23.405714 80.457143 29.257143 29.257143 73.142857 38.034286 92.16 39.497143 51.2 4.388571 106.788571-21.942857 147.748571-51.2 16.091429-11.702857 43.885714-33.645714 70.217143-70.217143C475.428571 586.605714 402.285714 552.96 323.291429 555.885714c-42.422857 1.462857-71.68 8.777143-92.16 20.48z m751.908571 136.045715C1009.371429 650.971429 1024 583.68 1024 512 1024 229.668571 794.331429 0 512 0S0 229.668571 0 512s229.668571 512 512 512c169.691429 0 321.828571-83.382857 413.988571-212.114286-87.771429-43.885714-232.594286-115.565714-321.828571-159.451428-42.422857 48.274286-105.325714 98.011429-177.005714 118.491428-45.348571 13.165714-84.845714 19.017143-127.268572 10.24-42.422857-8.777143-73.142857-27.794286-90.697143-48.274285A285.257143 285.257143 0 0 1 181.394286 694.857143c0 1.462857 1.462857 2.925714 1.462857 2.925714s-4.388571-7.314286-7.314286-19.017143c-1.462857-5.851429-2.925714-11.702857-2.925714-17.554285v-13.165715c0-7.314286 0-16.091429 1.462857-23.405714 4.388571-20.48 13.165714-43.885714 35.108571-65.828571 49.737143-48.274286 114.102857-51.2 149.211429-49.737143 49.737143 0 137.508571 21.942857 212.114286 48.274285 20.48-43.885714 33.645714-90.697143 42.422857-121.417142h-307.2V402.285714h157.988571v-65.828571h-190.171428v-33.645714h190.171428v-67.291429c0-8.777143 1.462857-16.091429 16.091429-16.091429h74.605714v83.382858h207.725714v33.645714H554.422857V402.285714h165.302857s-16.091429 92.16-68.754285 184.32c115.565714 40.96 277.942857 103.862857 332.068571 125.805715z" fill="#009FE8" p-id="1720"></path></svg>